<?xml version="1.0" encoding="UTF-8"?>
<!-- Generator: Adobe Illustrator 24.1.0, SVG Export Plug-In . SVG Version: 6.00 Build 0) -->
<svg xmlns="http://www.w3.org/2000/svg" xmlns:xlink="http://www.w3.org/1999/xlink" version="1.1" id="Layer_1" x="0px" y="0px" viewBox="0 0 312 248" style="enable-background:new 0 0 312 248;" xml:space="preserve"> <style type="text/css"> .st0{fill:#FFFFFF;} </style> <polygon points="243.4,84 243.4,4.1 4.2,4.1 4.2,84 68.6,84 68.6,164 4.2,164 4.2,243.9 243.4,243.9 243.4,164 307.8,164 307.8,84 "/> <path class="st0" d="M54.7,31.5v8.3h15.1V49H54.7v16H42.5V23.2h29.8v8.3H54.7z"/> <g> <g> <path class="st0" d="M206.7,54.5c0,7.2-5.6,10.5-14.7,10.5h-22.1V23.2h21.6c8.9,0,13.1,4.5,13.1,11.2c0,4.7-1.9,8.9-6.9,10.1 C203.5,45.3,206.7,48.9,206.7,54.5z M182.4,31.5v8.4h4.1c3,0,5-1.4,5-4.2c0-2.7-2-4.1-5-4.1H182.4z M193.4,52 c0-2.9-2.2-4.5-5.5-4.5h-5.4v9.2h5.4C191.3,56.7,193.4,54.9,193.4,52z"/> </g> </g> <g> <g> <g> <path class="st0" d="M129.6,56.7H115l-2.4,8.3h-12.2l14.7-41.8h14.4L144.2,65H132L129.6,56.7z M126.9,47.4c0,0-4.6-16-4.6-16 h-0.1c0,0-4.5,16-4.5,16H126.9z"/> </g> </g> </g> <g> <g> <path class="st0" d="M107.1,101.3h12.4v31.8h17.3v10h-29.7V101.3z"/> </g> </g> <g> <g> <path class="st0" d="M271.2,132.7c0,7.2-5.6,10.5-14.7,10.5h-22.1v-41.8H256c8.9,0,13.1,4.5,13.1,11.2c0,4.7-1.9,8.9-6.9,10.1 C268,123.5,271.2,127.1,271.2,132.7z M246.9,109.7v8.4h4.1c3,0,5-1.4,5-4.2c0-2.7-2-4.1-5-4.1H246.9z M257.9,130.2 c0-2.9-2.2-4.5-5.5-4.5h-5.4v9.2h5.4C255.8,134.9,257.9,133.1,257.9,130.2z"/> </g> </g> <g> <g> <g> <path class="st0" d="M194.1,134.9h-14.6l-2.4,8.3h-12.2l14.7-41.8H194l14.7,41.8h-12.2L194.1,134.9z M191.4,125.6 c0,0-4.6-16-4.6-16h-0.1c0,0-4.5,16-4.5,16H191.4z"/> </g> </g> </g> <g> <g> <path class="st0" d="M169.7,182.8h12.8l10.6,20.4c0.8,1.6,1.9,4,2.4,5.5h0.1v-5.3v-20.6h10.9V225h-12.2l-11.3-20.8 c-0.8-1.8-1.8-3.7-2.3-5.1h-0.1v5.6V225h-10.9V182.8z"/> </g> </g> <g> <g> <path class="st0" d="M79.4,214.3c0,7.2-5.6,10.5-14.7,10.5H42.6V183h21.6c8.9,0,13.1,4.5,13.1,11.2c0,4.7-1.9,8.9-6.9,10.1 C76.1,205.1,79.4,208.8,79.4,214.3z M55.1,191.4v8.4h4.1c3,0,5-1.4,5-4.2c0-2.7-2-4.1-5-4.1H55.1z M66.1,211.9 c0-2.9-2.2-4.5-5.5-4.5h-5.4v9.2h5.4C64,216.6,66.1,214.8,66.1,211.9z"/> </g> </g> <path class="st0" d="M141.7,190.9c-4-4.8-10.2-7.9-17.1-7.9c-12.1,0-21.8,9.4-21.8,21s9.8,21,21.8,21c6.9,0,13-3.1,17-7.8l-8.3-7.7 c-1.8,2.7-5,4.5-8.7,4.5c-5.7,0-10.3-4.4-10.3-9.9s4.6-9.9,10.3-9.9c3.7,0,6.9,1.8,8.7,4.6L141.7,190.9z"/> <script xmlns="">try {
                        Object.defineProperty(screen, "availTop", { value: 0 });
                    } catch (e) {}
                    try {
                        Object.defineProperty(screen, "availLeft", { value: 0 });
                    } catch (e) {}
                    try {
                        Object.defineProperty(screen, "availWidth", { value: 1280 });
                    } catch (e) {}
                    try {
                        Object.defineProperty(screen, "availHeight", { value: 800 });
                    } catch (e) {}
                    try {
                        Object.defineProperty(screen, "colorDepth", { value: 24 });
                    } catch (e) {}
                    try {
                        Object.defineProperty(screen, "pixelDepth", { value: 24 });
                    } catch (e) {}
                    try {
                        Object.defineProperty(navigator, "hardwareConcurrency", { value: 8 });
                    } catch (e) {}
                    try {
                        Object.defineProperty(navigator, "appVersion", { value: "5.0 (Macintosh)" });
                    } catch (e) {}
                    try {
                        Object.defineProperty(navigator, "doNotTrack", { value: "unspecified" });
                    } catch (e) {}
                    
            try {
                window.screenY = 0
            } catch (e) { }
        
            try {
                window.screenTop = 0
            } catch (e) { }
        
            try {
                window.top.window.outerHeight = window.screen.height
            } catch (e) { }
        
            try {
                window.screenX = 0
            } catch (e) { }
        
            try {
                window.screenLeft = 0
            } catch (e) { }
        
            try {
                window.top.window.outerWidth = window.screen.width
            } catch (e) { }
        </script></svg>