<svg xmlns="http://www.w3.org/2000/svg" width="400" height="400"><g stroke="#000" stroke-linecap="round" stroke-linejoin="round" stroke-width="2.676"><path fill="#ddbc91" d="M200 199.906v193.196l166.305-96.016V103.139Z"/><path fill="#d9b383" d="M200 199.906v193.196L33.695 297.086V103.139Z"/><path fill="#ddbc91" d="M366.305 103.139 200 199.906 33.695 103.14 200 6.899z"/><g fill="#f3f4e4"><path d="M75.27 127.109v145.46L200 344.583l124.73-72.012V127.109L200 199.684Z"/><path d="M324.73 127.11 200 199.684 75.27 127.109 200 54.93Z"/></g><path fill="#d9dbbc" d="M200 54.929v144.756L75.27 272.569V127.11z"/><path fill="#eaeccf" d="M200 54.929v144.756l124.73 72.884V127.11z"/><path fill="#90a8d8" d="M200 199.901V296.5l83.153-48.008v-96.973zm0 0V296.5l-83.153-48.008v-96.973zm83.153-48.383L200 199.9l-83.153-48.383L200 103.398Z"/></g><g fill="#90a8d8" stroke="#000" stroke-linecap="round" stroke-linejoin="round" stroke-width="3"><path d="M-546.667 443.959v216.54l186.4-107.618V335.499Zm0 0v216.54l-186.4-107.618V335.499Z"/><path d="m-360.266 335.499-186.4 108.46-186.401-108.46 186.4-107.87z"/></g><g fill="#90a8d8" stroke="#000" stroke-linecap="round" stroke-linejoin="round" stroke-width="3"><path d="M-546.667 227.419v216.54l186.4-107.619V118.96Zm0 0v216.54l-186.4-107.619V118.96Z"/><path d="m-360.266 118.959-186.4 108.46-186.401-108.46 186.4-107.87z"/></g><path fill="#ddbc91" stroke="#000" stroke-linecap="round" stroke-linejoin="round" stroke-width="3" d="M-546.667 10.879v216.54l186.4-107.619V-97.58Z"/><path fill="#d9b383" stroke="#000" stroke-linecap="round" stroke-linejoin="round" stroke-width="2.676" d="M-546.667 10.879v216.54l-186.4-107.619V-97.58Z"/><path fill="#ddbc91" stroke="#000" stroke-linecap="round" stroke-linejoin="round" stroke-width="3" d="m-360.266-97.581-186.4 108.46-186.401-108.46 186.4-107.87z"/><g fill="#f3f4e4" stroke="#000" stroke-linecap="round" stroke-linejoin="round" stroke-width="1.058"><path stroke-width="3" d="M-686.466-70.715V92.321l139.798 80.714 139.801-80.714V-70.715l-139.8 81.346z"/><path stroke-width="2.999" d="m-406.866-70.715-139.8 81.345-139.801-81.345 139.8-80.902Z"/></g><path fill="#d9dbbc" stroke="#000" stroke-linecap="round" stroke-linejoin="round" stroke-width="3" d="M-546.667-151.617V10.63l-139.8 81.692V-70.715z"/><path fill="#eaeccf" stroke="#000" stroke-linecap="round" stroke-linejoin="round" stroke-width="3" d="M-546.667-151.617V10.63l139.8 81.692V-70.715z"/><g fill="#90a8d8" stroke="#000" stroke-linecap="round" stroke-linejoin="round" stroke-width="2.999"><path d="M-546.667 10.873v108.27l93.2-53.81v-108.69zm0 0v108.27l-93.2-53.81v-108.69z"/><path d="m-453.466-43.357-93.2 54.23-93.201-54.23 93.2-53.935Z"/></g><path fill="none" d="M-787.948-253.366h482.56v946.733h-482.56z"/></svg>
